<svg xmlns="http://www.w3.org/2000/svg" viewBox="0 0 64 64" role="img" aria-label="Bunch flowers logo">
  <defs>
    <linearGradient id="g" x1="0%" x2="100%" y1="0%" y2="100%">
      <stop offset="0%" stop-color="#f43f5e"/>
      <stop offset="100%" stop-color="#fb7185"/>
    </linearGradient>
    <filter id="shadow" x="-20%" y="-20%" width="140%" height="140%" color-interpolation-filters="sRGB">
      <feDropShadow dx="0" dy="2" stdDeviation="3" flood-color="#e11d48" flood-opacity="0.35"/>
    </filter>
  </defs>
  <rect width="64" height="64" rx="16" fill="url(#g)" filter="url(#shadow)"/>
  <path fill="#fff" d="M22 18h12c6.075 0 11 4.925 11 11 0 3.94-2.093 7.387-5.24 9.32C42.42 40.2 44 42.86 44 45.9 44 50.97 39.97 55 34.9 55H22V18Zm7.2 15.2H33c2.1 0 3.8-1.7 3.8-3.8 0-2.1-1.7-3.8-3.8-3.8h-3.8v7.6Zm0 14H34c2.32 0 4.2-1.88 4.2-4.2S36.32 38.8 34 38.8h-4.8v8.4Z"/>
</svg>
