<svg xmlns="http://www.w3.org/2000/svg" viewBox="0 0 1024 1024">
  <rect x="0" y="0" width="1024" height="1024" fill="#ffffff"/>
  <g transform="translate(220.474 204.800) scale(9.675591)">
    <defs>
  <style type="text/css">
   <![CDATA[
    .fil0 {fill:#EA5289;fill-rule:nonzero}
    .fil1 {fill:#61A375;fill-rule:nonzero}
   ]]>
  </style>
 </defs>
 <g id="Layer_x0020_1">
  <metadata id="CorelCorpID_0Corel-Layer"/>
  <g id="_1239061264">
   <path class="fil0" d="M38.96 43.93c2.27,2.61 6.17,2.74 8.7,0.31 -1.38,-3.23 -5.02,-4.62 -8.13,-3.11 -0.61,0.29 -1.15,0.68 -1.62,1.13 0.25,0.6 0.6,1.16 1.05,1.67z"/>
   <path class="fil0" d="M49.6 34.91c3.19,3.06 4.76,7.06 4.57,10.67 3.97,-4.22 4.13,-10.56 0.32,-14.22 -3.34,-3.22 -8.63,-3.31 -12.62,-0.48 2.7,0.46 5.44,1.82 7.73,4.03z"/>
   <path class="fil0" d="M37.1 58.11c-4.37,0.22 -8.31,-1.19 -10.76,-3.52 0.31,5.18 4.76,9.16 9.97,8.9 4.59,-0.23 8.25,-3.65 8.94,-7.99 -2.17,1.48 -5.01,2.45 -8.15,2.61z"/>
   <path class="fil0" d="M30.68 48.61c-2.84,-3.6 -3.92,-7.89 -3.26,-11.52 -4.56,3.68 -5.53,10.09 -2.15,14.38 2.98,3.76 8.32,4.65 12.72,2.38 -2.67,-0.87 -5.27,-2.66 -7.31,-5.24z"/>
   <path class="fil0" d="M54.56 51.41c-2.54,3.92 -6.18,6.48 -9.66,7.19 4.54,2.87 10.63,1.43 13.67,-3.25 2.67,-4.1 2.09,-9.35 -1.11,-12.58 -0.11,2.78 -1.07,5.83 -2.9,8.64z"/>
   <path class="fil0" d="M47.6 48.34c-1.84,2.38 -4.29,3.99 -6.94,4.8 4.33,1.53 8.58,0.96 10.75,-1.84 2.17,-2.8 1.68,-7.06 -0.88,-10.87 -0.13,2.77 -1.08,5.54 -2.93,7.91z"/>
   <path class="fil0" d="M43.06 38.23c2.41,0 4.68,0.55 6.67,1.5 -1.56,-3.82 -4.03,-6.29 -6.8,-6.29 -2.82,0 -5.32,2.54 -6.88,6.46 2.08,-1.06 4.46,-1.67 7.01,-1.67z"/>
   <path class="fil0" d="M38.04 46.2c-1.83,-1.57 -3.19,-3.47 -4.08,-5.49 -1.32,3.91 -1.06,7.4 1.04,9.21 2.14,1.84 5.69,1.55 9.43,-0.4 -2.26,-0.55 -4.47,-1.66 -6.39,-3.32z"/>
   <path class="fil0" d="M35.19 34.7c2.63,-3.24 5.89,-5.54 9.24,-6.79 -5.5,-1.8 -10.9,-0.98 -13.84,2.64 -2.85,3.51 -2.65,8.75 0.02,13.65 0.66,-3.24 2.19,-6.55 4.58,-9.5z"/>
  </g>
  <path class="fil1" d="M24.49 2.08c-0.21,1.79 -0.18,4.68 -0.35,7.65 0.08,2.97 -0.42,6.89 -0.35,7.63 -0.06,0.77 -0.23,0.72 -0.23,0.72 0,0 -3.88,-1.53 -4.19,-3.18 -0.32,-1.66 -2.37,-8.19 -3.64,-9.8 -1.26,-1.61 -3.48,-3.08 -5.06,-3.81 0,0 -0.94,0.37 -0.63,1.29 0,0 -5.77,-1.48 -6.04,-2.03 0,0 -0.83,1.11 0,1.66 0,0 -2.02,-0.92 -1.54,-2.21 0,0 -2.54,3.08 -2.46,5.95 0.09,2.88 2.54,8.4 4,9.68 1.46,1.29 2.57,1.47 4.38,1.29 1.48,-0.15 1.9,-0.09 3.32,0.55 0.96,0.44 4.1,-2.39 5.49,-1.65 1.39,0.73 6.2,2.69 6.25,3.51 -0.12,0.63 -0.17,7.66 -0.64,13.18 -0.48,5.51 -1.88,26.87 -1.88,26.87l4.19 3.7c0,0 1.1,-59.4 1.26,-61.06 -0.29,-0.35 -1.43,-0.41 -1.88,0.06z"/>
 </g>
  </g>
</svg>