<?xml version="1.0" encoding="UTF-8"?>
<!DOCTYPE svg PUBLIC "-//W3C//DTD SVG 1.1//EN" "http://www.w3.org/Graphics/SVG/1.1/DTD/svg11.dtd">
<!-- Creator: CorelDRAW 2021.5 -->
<svg xmlns="http://www.w3.org/2000/svg" xml:space="preserve" width="469px" height="527px" version="1.1" style="shape-rendering:geometricPrecision; text-rendering:geometricPrecision; image-rendering:optimizeQuality; fill-rule:evenodd; clip-rule:evenodd"
viewBox="0 0 224.1 252.15"
 xmlns:xlink="http://www.w3.org/1999/xlink"
 xmlns:xodm="http://www.corel.com/coreldraw/odm/2003">
 <defs>
  <style type="text/css">
   <![CDATA[
    .str0 {stroke:#EC003F;stroke-width:1.99;stroke-miterlimit:22.9256}
    .fil1 {fill:none}
    .fil0 {fill:#EC003F;fill-rule:nonzero}
   ]]>
  </style>
 </defs>
 <g id="Layer_x0020_1">
  <metadata id="CorelCorpID_0Corel-Layer"/>
  <path id="qr-path" class="fil0" d="M103.56 165.78l0 5.8 5.8 0 0 -5.8 -5.8 0zm63.81 0l0 5.8 5.8 0 0 -5.8 -5.8 0zm-63.81 52.2l0 5.8 5.8 0 0 -5.8 -5.8 0zm63.81 0l0 5.8 5.8 0 0 -5.8 -5.8 0zm-40.6 -174l0 5.8 5.8 0 0 -5.8 -5.8 0zm63.8 0l0 5.8 5.8 0 0 -5.8 -5.8 0zm-63.8 52.2l0 5.8 5.8 0 0 -5.8 -5.8 0zm63.8 0l0 5.8 5.8 0 0 -5.8 -5.8 0zm-174.01 -23.2l0 5.8 5.8 0 0 -5.8 -5.8 0zm46.4 75.4l0 5.8 5.8 0 0 -5.8 -5.8 0zm127.61 0l0 5.8 5.8 0 0 -5.8 -5.8 0zm-174.01 29l0 5.8 5.8 0 0 -5.8 -5.8 0zm58 23.2l0 5.8 5.8 0 0 -5.8 -5.8 0zm-34.8 -145l0 5.8 5.8 0 0 -5.8 -5.8 0zm-11.6 174l0 5.8 5.8 0 0 -5.8 -5.8 0zm116.01 -127.6l0 5.8 5.8 0 0 -5.8 -5.8 0zm-110.21 -23.2l0 5.8 5.8 0 0 -5.8 -5.8 0zm110.21 75.4l0 5.8 5.8 0 0 -5.8 -5.8 0zm-110.21 -23.2l0 5.8 5.8 0 0 -5.8 -5.8 0zm63.8 0l0 5.8 5.8 0 0 -5.8 -5.8 0zm46.41 75.4l0 5.8 5.8 0 0 -5.8 -5.8 0zm-23.2 -145l0 5.8 5.8 0 0 -5.8 -5.8 0zm-17.41 75.4l0 5.8 5.8 0 0 -5.8 -5.8 0zm-46.4 29l0 5.8 5.8 0 0 -5.8 -5.8 0zm63.81 52.2l0 5.8 5.8 0 0 -5.8 -5.8 0zm52.2 -127.6l0 5.8 5.8 0 0 -5.8 -5.8 0zm11.6 110.2l0 5.8 5.8 0 0 -5.8 -5.8 0zm-121.81 -133.4l0 5.8 5.8 0 0 -5.8 -5.8 0zm127.61 0l0 5.8 5.8 0 0 -5.8 -5.8 0zm-174.01 -23.2l0 5.8 5.8 0 0 -5.8 -5.8 0zm174.01 75.4l0 5.8 5.8 0 0 -5.8 -5.8 0zm-174.01 -23.2l0 5.8 5.8 0 0 -5.8 -5.8 0zm145.01 11.6l0 5.8 5.8 0 0 -5.8 -5.8 0zm0 52.2l0 5.8 5.8 0 0 -5.8 -5.8 0zm-17.4 -34.8l0 5.8 5.8 0 0 -5.8 -5.8 0zm-46.41 -23.2l0 5.8 5.8 0 0 -5.8 -5.8 0zm46.41 127.6l0 5.8 5.8 0 0 -5.8 -5.8 0zm-110.21 -23.2l0 5.8 5.8 0 0 -5.8 -5.8 0zm63.8 0l0 5.8 5.8 0 0 -5.8 -5.8 0zm69.61 -150.8l0 5.8 5.8 0 0 -5.8 -5.8 0zm-63.81 52.2l0 5.8 5.8 0 0 -5.8 -5.8 0zm-46.4 29l0 5.8 5.8 0 0 -5.8 -5.8 0zm127.61 -17.4l0 5.8 5.8 0 0 -5.8 -5.8 0zm0 52.2l0 5.8 5.8 0 0 -5.8 -5.8 0zm-46.4 -23.2l0 5.8 5.8 0 0 -5.8 -5.8 0zm-87.01 63.8l0 5.8 5.8 0 0 -5.8 -5.8 0zm133.41 11.6l0 5.8 5.8 0 0 -5.8 -5.8 0zm-110.21 -133.4l0 5.8 5.8 0 0 -5.8 -5.8 0zm0 52.2l0 5.8 5.8 0 0 -5.8 -5.8 0zm-46.4 -23.2l0 5.8 5.8 0 0 -5.8 -5.8 0zm133.41 11.6l0 5.8 5.8 0 0 -5.8 -5.8 0zm0 52.2l0 5.8 5.8 0 0 -5.8 -5.8 0zm-17.4 -87l0 5.8 5.8 0 0 -5.8 -5.8 0zm-110.21 29l0 5.8 5.8 0 0 -5.8 -5.8 0zm0 52.2l0 5.8 5.8 0 0 -5.8 -5.8 0zm63.8 0l0 5.8 5.8 0 0 -5.8 -5.8 0zm69.61 -98.6l0 5.8 5.8 0 0 -5.8 -5.8 0zm-52.21 110.2l0 5.8 5.81 0 0 -5.8 -5.81 0zm63.81 0l0 5.8 5.8 0 0 -5.8 -5.8 0zm-58 -81.2l0 5.8 5.8 0 0 -5.8 -5.8 0zm63.8 -17.4l0 5.8 5.8 0 0 -5.8 -5.8 0zm0 52.2l0 5.8 5.8 0 0 -5.8 -5.8 0zm-46.4 -23.2l0 5.8 5.8 0 0 -5.8 -5.8 0zm-87.01 63.8l0 5.8 5.8 0 0 -5.8 -5.8 0zm87.01 40.6l0 5.8 5.8 0 0 -5.8 -5.8 0zm-63.81 -162.4l0 5.8 5.8 0 0 -5.8 -5.8 0zm-46.4 29l0 5.8 5.8 0 0 -5.8 -5.8 0zm46.4 75.4l0 5.8 5.8 0 0 -5.8 -5.8 0zm-46.4 -23.2l0 5.8 5.8 0 0 -5.8 -5.8 0zm133.41 11.6l0 5.8 5.8 0 0 -5.8 -5.8 0zm-87.01 63.8l0 5.8 5.8 0 0 -5.8 -5.8 0zm-46.4 -23.2l0 5.8 5.8 0 0 -5.8 -5.8 0zm133.41 11.6l0 5.8 5.8 0 0 -5.8 -5.8 0zm-17.4 -139.2l0 5.8 5.8 0 0 -5.8 -5.8 0zm-110.21 -23.2l0 5.8 5.8 0 0 -5.8 -5.8 0zm63.8 0l0 5.8 5.8 0 0 -5.8 -5.8 0zm58.01 185.6l0 5.8 5.8 0 0 -5.8 -5.8 0zm-58.01 -133.4l0 5.8 5.8 0 0 -5.8 -5.8 0zm0 52.2l0 5.8 5.8 0 0 -5.8 -5.8 0zm69.61 -98.6l0 5.8 5.8 0 0 -5.8 -5.8 0zm11.6 110.2l0 5.8 5.8 0 0 -5.8 -5.8 0zm0 52.2l0 5.8 5.8 0 0 -5.8 -5.8 0zm5.8 -150.8l0 5.8 5.8 0 0 -5.8 -5.8 0zm-133.41 40.6l0 5.8 5.8 0 0 -5.8 -5.8 0zm133.41 11.6l0 5.8 5.8 0 0 -5.8 -5.8 0zm0 52.2l0 5.8 5.8 0 0 -5.8 -5.8 0zm-46.4 -23.2l0 5.8 5.8 0 0 -5.8 -5.8 0zm-87.01 63.8l0 5.8 5.8 0 0 -5.8 -5.8 0zm23.2 -121.8l0 5.8 5.8 0 0 -5.8 -5.8 0zm-46.4 -23.2l0 5.8 5.8 0 0 -5.8 -5.8 0zm133.41 63.8l0 5.8 5.8 0 0 -5.8 -5.8 0zm-87.01 63.8l0 5.8 5.8 0 0 -5.8 -5.8 0zm-46.4 29l0 5.8 5.8 0 0 -5.8 -5.8 0zm116.01 -127.6l0 5.8 5.8 0 0 -5.8 -5.8 0zm11.6 110.2l0 5.8 5.8 0 0 -5.8 -5.8 0zm-121.81 -133.4l0 5.8 5.8 0 0 -5.8 -5.8 0zm63.8 0l0 5.8 5.8 0 0 -5.8 -5.8 0zm81.21 11.6l0 5.8 5.8 0 0 -5.8 -5.8 0zm-110.21 29l0 5.8 5.8 0 0 -5.8 -5.8 0zm-23.2 63.8l0 5.8 5.8 0 0 -5.8 -5.8 0zm69.6 11.6l0 5.8 5.81 0 0 -5.8 -5.81 0zm63.81 0l0 5.8 5.8 0 0 -5.8 -5.8 0zm-127.61 -110.2l0 5.8 5.8 0 0 -5.8 -5.8 0zm87.01 -11.6l0 5.8 5.8 0 0 -5.8 -5.8 0zm-87.01 63.8l0 5.8 5.8 0 0 -5.8 -5.8 0zm133.41 11.6l0 5.8 5.8 0 0 -5.8 -5.8 0zm-46.4 -23.2l0 5.8 5.8 0 0 -5.8 -5.8 0zm-87.01 116l0 5.8 5.8 0 0 -5.8 -5.8 0zm23.2 -121.8l0 5.8 5.8 0 0 -5.8 -5.8 0zm127.61 34.8l0 5.8 5.8 0 0 -5.8 -5.8 0zm-46.4 -23.2l0 5.8 5.8 0 0 -5.8 -5.8 0zm-46.41 29l0 5.8 5.8 0 0 -5.8 -5.8 0zm-17.4 75.4l0 5.8 5.8 0 0 -5.8 -5.8 0zm-46.4 -133.4l0 5.8 5.8 0 0 -5.8 -5.8 0zm69.6 11.6l0 5.8 5.81 0 0 -5.8 -5.81 0zm63.81 0l0 5.8 5.8 0 0 -5.8 -5.8 0zm0 52.2l0 5.8 5.8 0 0 -5.8 -5.8 0zm-110.21 -23.2l0 5.8 5.8 0 0 -5.8 -5.8 0zm-23.2 63.8l0 5.8 5.8 0 0 -5.8 -5.8 0zm133.41 11.6l0 5.8 5.8 0 0 -5.8 -5.8 0zm-127.61 -162.4l0 5.8 5.8 0 0 -5.8 -5.8 0zm133.41 11.6l0 5.8 5.8 0 0 -5.8 -5.8 0zm0 52.2l0 5.8 5.8 0 0 -5.8 -5.8 0zm-46.4 -23.2l0 5.8 5.8 0 0 -5.8 -5.8 0zm-87.01 63.8l0 5.8 5.8 0 0 -5.8 -5.8 0zm23.2 -69.6l0 5.8 5.8 0 0 -5.8 -5.8 0zm11.6 110.2l0 5.8 5.8 0 0 -5.8 -5.8 0zm-58 -133.4l0 5.8 5.8 0 0 -5.8 -5.8 0zm174.01 5.8l0 5.8 5.8 0 0 -5.8 -5.8 0zm-162.41 156.6l0 5.8 5.8 0 0 -5.8 -5.8 0zm52.2 -127.6l0 5.8 5.8 0 0 -5.8 -5.8 0zm63.81 0l0 5.8 5.8 0 0 -5.8 -5.8 0zm46.4 75.4l0 5.8 5.8 0 0 -5.8 -5.8 0zm-110.21 -23.2l0 5.8 5.8 0 0 -5.8 -5.8 0zm63.81 52.2l0 5.8 5.8 0 0 -5.8 -5.8 0zm-40.61 -121.8l0 5.8 5.81 0 0 -5.8 -5.81 0zm-69.6 40.6l0 5.8 5.8 0 0 -5.8 -5.8 0zm133.41 11.6l0 5.8 5.8 0 0 -5.8 -5.8 0zm-110.21 29l0 5.8 5.8 0 0 -5.8 -5.8 0zm-17.4 -87l0 5.8 5.8 0 0 -5.8 -5.8 0zm133.41 11.6l0 5.8 5.8 0 0 -5.8 -5.8 0zm-46.4 -23.2l0 5.8 5.8 0 0 -5.8 -5.8 0zm-75.41 174l0 5.8 5.8 0 0 -5.8 -5.8 0zm23.2 -69.6l0 5.8 5.8 0 0 -5.8 -5.8 0zm63.81 0l0 5.8 5.8 0 0 -5.8 -5.8 0zm5.8 -98.6l0 5.8 5.8 0 0 -5.8 -5.8 0zm46.4 75.4l0 5.8 5.8 0 0 -5.8 -5.8 0zm-179.81 -34.8l0 5.8 5.8 0 0 -5.8 -5.8 0zm133.41 11.6l0 5.8 5.8 0 0 -5.8 -5.8 0zm46.4 75.4l0 5.8 5.8 0 0 -5.8 -5.8 0zm-92.81 -98.6l0 5.8 5.8 0 0 -5.8 -5.8 0zm-17.4 75.4l0 5.8 5.8 0 0 -5.8 -5.8 0zm17.4 -23.2l0 5.8 5.8 0 0 -5.8 -5.8 0zm-17.4 75.4l0 5.8 5.8 0 0 -5.8 -5.8 0zm87.01 -174l0 5.8 5.8 0 0 -5.8 -5.8 0zm-63.81 52.2l0 5.8 5.81 0 0 -5.8 -5.81 0zm63.81 52.2l0 5.8 5.8 0 0 -5.8 -5.8 0zm-110.21 -23.2l0 5.8 5.8 0 0 -5.8 -5.8 0zm-5.8 75.4l0 5.8 5.8 0 0 -5.8 -5.8 0zm127.61 0l0 5.8 5.8 0 0 -5.8 -5.8 0zm-58 -150.8l0 5.8 5.8 0 0 -5.8 -5.8 0zm-116.01 179.8l0 5.8 5.8 0 0 -5.8 -5.8 0zm63.8 0l0 5.8 5.8 0 0 -5.8 -5.8 0zm116.01 -127.6l0 5.8 5.8 0 0 -5.8 -5.8 0zm-110.21 -23.2l0 5.8 5.8 0 0 -5.8 -5.8 0zm46.41 75.4l0 5.8 5.8 0 0 -5.8 -5.8 0zm63.8 0l0 5.8 5.8 0 0 -5.8 -5.8 0zm-46.4 -23.2l0 5.8 5.8 0 0 -5.8 -5.8 0zm-17.4 75.4l0 5.8 5.8 0 0 -5.8 -5.8 0zm-92.81 -98.6l0 5.8 5.8 0 0 -5.8 -5.8 0zm156.61 98.6l0 5.8 5.8 0 0 -5.8 -5.8 0zm5.8 -150.8l0 5.8 5.8 0 0 -5.8 -5.8 0zm-162.41 104.4l0 5.8 5.8 0 0 -5.8 -5.8 0zm162.41 -52.2l0 5.8 5.8 0 0 -5.8 -5.8 0zm-162.41 104.4l0 5.8 5.8 0 0 -5.8 -5.8 0zm-17.4 -87l0 5.8 5.8 0 0 -5.8 -5.8 0zm133.41 11.6l0 5.8 5.8 0 0 -5.8 -5.8 0zm-46.41 -23.2l0 5.8 5.8 0 0 -5.8 -5.8 0zm46.41 75.4l0 5.8 5.8 0 0 -5.8 -5.8 0zm-46.41 -23.2l0 5.8 5.8 0 0 -5.8 -5.8 0zm-87 63.8l0 5.8 5.8 0 0 -5.8 -5.8 0zm87 -11.6l0 5.8 5.8 0 0 -5.8 -5.8 0zm69.61 -150.8l0 5.8 5.8 0 0 -5.8 -5.8 0zm-133.41 40.6l0 5.8 5.8 0 0 -5.8 -5.8 0zm23.2 -11.6l0 5.8 5.8 0 0 -5.8 -5.8 0zm104.41 46.4l0 5.8 5.8 0 0 -5.8 -5.8 0zm-46.4 29l0 5.8 5.8 0 0 -5.8 -5.8 0zm63.8 0l0 5.8 5.8 0 0 -5.8 -5.8 0zm-174.01 -23.2l0 5.8 5.8 0 0 -5.8 -5.8 0zm63.8 0l0 5.8 5.8 0 0 -5.8 -5.8 0zm110.21 75.4l0 5.8 5.8 0 0 -5.8 -5.8 0zm-174.01 -23.2l0 5.8 5.8 0 0 -5.8 -5.8 0zm63.8 0l0 5.8 5.8 0 0 -5.8 -5.8 0zm52.21 -75.4l0 5.8 5.8 0 0 -5.8 -5.8 0zm63.8 0l0 5.8 5.8 0 0 -5.8 -5.8 0zm-110.21 -23.2l0 5.8 5.8 0 0 -5.8 -5.8 0zm46.41 75.4l0 5.8 5.8 0 0 -5.8 -5.8 0zm-92.81 -98.6l0 5.8 5.8 0 0 -5.8 -5.8 0zm156.61 98.6l0 5.8 5.8 0 0 -5.8 -5.8 0zm0 52.2l0 5.8 5.8 0 0 -5.8 -5.8 0zm-156.61 -98.6l0 5.8 5.8 0 0 -5.8 -5.8 0zm46.4 75.4l0 5.8 5.8 0 0 -5.8 -5.8 0zm116.01 -127.6l0 5.8 5.8 0 0 -5.8 -5.8 0zm-179.81 -34.8l0 5.8 5.8 0 0 -5.8 -5.8 0zm69.6 63.8l0 5.8 5.8 0 0 -5.8 -5.8 0zm17.4 -23.2l0 5.8 5.8 0 0 -5.8 -5.8 0zm-87 63.8l0 5.8 5.8 0 0 -5.8 -5.8 0zm87 -11.6l0 5.8 5.8 0 0 -5.8 -5.8 0zm-5.8 75.4l0 5.8 5.8 0 0 -5.8 -5.8 0zm-58 -133.4l0 5.8 5.8 0 0 -5.8 -5.8 0zm127.61 34.8l0 5.8 5.8 0 0 -5.8 -5.8 0zm-46.4 -23.2l0 5.8 5.8 0 0 -5.8 -5.8 0zm63.8 0l0 5.8 5.8 0 0 -5.8 -5.8 0zm-174.01 -23.2l0 5.8 5.8 0 0 -5.8 -5.8 0zm46.4 75.4l0 5.8 5.8 0 0 -5.8 -5.8 0zm63.81 0l0 5.8 5.8 0 0 -5.8 -5.8 0zm63.8 0l0 5.8 5.8 0 0 -5.8 -5.8 0zm-174.01 -23.2l0 5.8 5.8 0 0 -5.8 -5.8 0zm63.8 0l0 5.8 5.8 0 0 -5.8 -5.8 0zm110.21 75.4l0 5.8 5.8 0 0 -5.8 -5.8 0zm-17.4 23.2l0 5.8 5.8 0 0 -5.8 -5.8 0zm-156.61 -46.4l0 5.8 5.8 0 0 -5.8 -5.8 0zm116.01 -127.6l0 5.8 5.8 0 0 -5.8 -5.8 0zm63.8 0l0 5.8 5.8 0 0 -5.8 -5.8 0zm-179.81 179.8l0 5.8 5.8 0 0 -5.8 -5.8 0zm116.01 -127.6l0 5.8 5.8 0 0 -5.8 -5.8 0zm63.8 0l0 5.8 5.8 0 0 -5.8 -5.8 0zm-110.21 -23.2l0 5.8 5.8 0 0 -5.8 -5.8 0zm63.81 0l0 5.8 5.8 0 0 -5.8 -5.8 0zm46.4 75.4l0 5.8 5.8 0 0 -5.8 -5.8 0zm-110.21 -23.2l0 5.8 5.8 0 0 -5.8 -5.8 0zm0 52.2l0 5.8 5.8 0 0 -5.8 -5.8 0zm116.01 -127.6l0 5.8 5.8 0 0 -5.8 -5.8 0zm-162.41 104.4l0 5.8 5.8 0 0 -5.8 -5.8 0zm0 52.2l0 5.8 5.8 0 0 -5.8 -5.8 0zm116.01 -127.6l0 5.8 5.8 0 0 -5.8 -5.8 0zm-46.41 -23.2l0 5.8 5.8 0 0 -5.8 -5.8 0zm-87 63.8l0 5.8 5.8 0 0 -5.8 -5.8 0zm11.6 110.2l0 5.8 5.8 0 0 -5.8 -5.8 0zm69.6 -98.6l0 5.8 5.8 0 0 -5.8 -5.8 0zm63.81 0l0 5.8 5.8 0 0 -5.8 -5.8 0zm0 52.2l0 5.8 5.8 0 0 -5.8 -5.8 0zm-110.21 -23.2l0 5.8 5.8 0 0 -5.8 -5.8 0zm63.81 0l0 5.8 5.8 0 0 -5.8 -5.8 0zm0 52.2l0 5.8 5.8 0 0 -5.8 -5.8 0zm-58.01 -150.8l0 5.8 5.8 0 0 -5.8 -5.8 0zm63.81 0l0 5.8 5.8 0 0 -5.8 -5.8 0zm63.8 0l0 5.8 5.8 0 0 -5.8 -5.8 0zm-17.4 75.4l0 5.8 5.8 0 0 -5.8 -5.8 0zm-110.21 -23.2l0 5.8 5.8 0 0 -5.8 -5.8 0zm63.81 0l0 5.8 5.8 0 0 -5.8 -5.8 0zm-110.21 -23.2l0 5.8 5.8 0 0 -5.8 -5.8 0zm46.4 75.4l0 5.8 5.8 0 0 -5.8 -5.8 0zm17.4 -23.2l0 5.8 5.8 0 0 -5.8 -5.8 0zm-17.4 75.4l0 5.8 5.8 0 0 -5.8 -5.8 0zm-46.4 -23.2l0 5.8 5.8 0 0 -5.8 -5.8 0zm63.8 0l0 5.8 5.8 0 0 -5.8 -5.8 0zm52.21 -127.6l0 5.8 5.8 0 0 -5.8 -5.8 0zm-46.41 -23.2l0 5.8 5.8 0 0 -5.8 -5.8 0zm63.81 0l0 5.8 5.8 0 0 -5.8 -5.8 0zm46.4 75.4l0 5.8 5.8 0 0 -5.8 -5.8 0zm-110.21 -23.2l0 5.8 5.8 0 0 -5.8 -5.8 0zm63.81 0l0 5.8 5.8 0 0 -5.8 -5.8 0zm-110.21 29l0 5.8 5.8 0 0 -5.8 -5.8 0zm104.41 46.4l0 5.8 5.8 0 0 -5.8 -5.8 0zm0 52.2l0 5.8 5.8 0 0 -5.8 -5.8 0zm-40.61 -174l0 5.8 5.8 0 0 -5.8 -5.8 0zm0 52.2l0 5.8 5.8 0 0 -5.8 -5.8 0zm63.81 0l0 5.8 5.8 0 0 -5.8 -5.8 0zm-46.4 -23.2l0 5.8 5.8 0 0 -5.8 -5.8 0zm46.4 75.4l0 5.8 5.8 0 0 -5.8 -5.8 0zm-110.21 -23.2l0 5.8 5.8 0 0 -5.8 -5.8 0zm46.4 75.4l0 5.8 5.8 0 0 -5.8 -5.8 0zm63.81 0l0 5.8 5.8 0 0 -5.8 -5.8 0zm-110.21 -23.2l0 5.8 5.8 0 0 -5.8 -5.8 0zm5.8 -98.6l0 5.8 5.8 0 0 -5.8 -5.8 0zm63.81 0l0 5.8 5.8 0 0 -5.8 -5.8 0zm46.4 75.4l0 5.8 5.8 0 0 -5.8 -5.8 0zm-156.61 -98.6l0 5.8 5.8 0 0 -5.8 -5.8 0zm63.8 0l0 5.8 5.8 0 0 -5.8 -5.8 0zm-17.4 75.4l0 5.8 5.8 0 0 -5.8 -5.8 0zm-46.4 -23.2l0 5.8 5.8 0 0 -5.8 -5.8 0zm63.8 0l0 5.8 5.8 0 0 -5.8 -5.8 0zm46.41 75.4l0 5.8 5.8 0 0 -5.8 -5.8 0zm63.8 0l0 5.8 5.8 0 0 -5.8 -5.8 0zm-174.01 -23.2l0 5.8 5.8 0 0 -5.8 -5.8 0zm63.8 0l0 5.8 5.8 0 0 -5.8 -5.8 0zm5.8 -98.6l0 5.8 5.8 0 0 -5.8 -5.8 0zm-46.4 -23.2l0 5.8 5.8 0 0 -5.8 -5.8 0zm-5.8 75.4l0 5.8 5.8 0 0 -5.8 -5.8 0zm110.21 75.4l0 5.8 5.8 0 0 -5.8 -5.8 0zm-110.21 -23.2l0 5.8 5.8 0 0 -5.8 -5.8 0zm63.8 0l0 5.8 5.8 0 0 -5.8 -5.8 0zm0 52.2l0 5.8 5.8 0 0 -5.8 -5.8 0zm69.61 -150.8l0 5.8 5.8 0 0 -5.8 -5.8 0zm-46.4 -23.2l0 5.8 5.8 0 0 -5.8 -5.8 0zm-17.41 75.4l0 5.8 5.8 0 0 -5.8 -5.8 0zm63.81 0l0 5.8 5.8 0 0 -5.8 -5.8 0zm-110.21 29l0 5.8 5.8 0 0 -5.8 -5.8 0zm46.4 75.4l0 5.8 5.8 0 0 -5.8 -5.8 0zm69.61 -150.8l0 5.8 5.8 0 0 -5.8 -5.8 0zm-110.21 -23.2l0 5.8 5.8 0 0 -5.8 -5.8 0zm63.81 0l0 5.8 5.8 0 0 -5.8 -5.8 0zm63.8 0l0 5.8 5.8 0 0 -5.8 -5.8 0zm-127.61 52.2l0 5.8 5.8 0 0 -5.8 -5.8 0zm127.61 0l0 5.8 5.8 0 0 -5.8 -5.8 0zm-110.21 -23.2l0 5.8 5.8 0 0 -5.8 -5.8 0zm0 52.2l0 5.8 5.8 0 0 -5.8 -5.8 0zm63.81 -23.2l0 5.8 5.8 0 0 -5.8 -5.8 0zm-110.21 -23.2l0 5.8 5.8 0 0 -5.8 -5.8 0zm63.8 0l0 5.8 5.8 0 0 -5.8 -5.8 0zm46.41 75.4l0 5.8 5.8 0 0 -5.8 -5.8 0zm-46.41 -23.2l0 5.8 5.8 0 0 -5.8 -5.8 0zm-63.8 52.2l0 5.8 5.8 0 0 -5.8 -5.8 0zm63.8 0l0 5.8 5.8 0 0 -5.8 -5.8 0zm69.61 -150.8l0 5.8 5.8 0 0 -5.8 -5.8 0zm0 52.2l0 5.8 5.8 0 0 -5.8 -5.8 0zm-63.81 52.2l0 5.8 5.8 0 0 -5.8 -5.8 0zm-46.4 29l0 5.8 5.8 0 0 -5.8 -5.8 0zm63.81 0l0 5.8 5.8 0 0 -5.8 -5.8 0zm63.8 -17.4l0 5.8 5.8 0 0 -5.8 -5.8 0zm-133.41 40.6l0 5.8 5.8 0 0 -5.8 -5.8 0zm139.21 -121.8l0 5.8 5.8 0 0 -5.8 -5.8 0zm-174.01 -23.2l0 5.8 5.8 0 0 -5.8 -5.8 0zm145.01 63.8l0 5.8 5.8 0 0 -5.8 -5.8 0zm-87.01 63.8l0 5.8 5.8 0 0 -5.8 -5.8 0zm87.01 -11.6l0 5.8 5.8 0 0 -5.8 -5.8 0zm-133.41 40.6l0 5.8 5.8 0 0 -5.8 -5.8 0zm133.41 11.6l0 5.8 5.8 0 0 -5.8 -5.8 0zm-127.61 -162.4l0 5.8 5.8 0 0 -5.8 -5.8 0zm110.21 75.4l0 5.8 5.8 0 0 -5.8 -5.8 0zm-46.41 -23.2l0 5.8 5.8 0 0 -5.8 -5.8 0zm-63.8 52.2l0 5.8 5.8 0 0 -5.8 -5.8 0zm63.8 0l0 5.8 5.8 0 0 -5.8 -5.8 0zm-63.8 52.2l0 5.8 5.8 0 0 -5.8 -5.8 0zm69.6 -150.8l0 5.8 5.8 0 0 -5.8 -5.8 0zm63.81 0l0 5.8 5.8 0 0 -5.8 -5.8 0zm-63.81 52.2l0 5.8 5.8 0 0 -5.8 -5.8 0zm63.81 0l0 5.8 5.8 0 0 -5.8 -5.8 0zm-110.21 -23.2l0 5.8 5.8 0 0 -5.8 -5.8 0zm63.81 0l0 5.8 5.8 0 0 -5.8 -5.8 0zm0 52.2l0 5.8 5.8 0 0 -5.8 -5.8 0zm-69.61 23.2l0 5.8 5.8 0 0 -5.8 -5.8 0zm133.41 11.6l0 5.8 5.8 0 0 -5.8 -5.8 0zm-46.4 -23.2l0 5.8 5.8 0 0 -5.8 -5.8 0zm-87.01 63.8l0 5.8 5.8 0 0 -5.8 -5.8 0zm87.01 -11.6l0 5.8 5.8 0 0 -5.8 -5.8 0zm-63.81 -162.4l0 5.8 5.8 0 0 -5.8 -5.8 0zm0 52.2l0 5.8 5.8 0 0 -5.8 -5.8 0zm-46.4 -23.2l0 5.8 5.8 0 0 -5.8 -5.8 0zm46.4 75.4l0 5.8 5.8 0 0 -5.8 -5.8 0zm-46.4 -23.2l0 5.8 5.8 0 0 -5.8 -5.8 0zm133.41 11.6l0 5.8 5.8 0 0 -5.8 -5.8 0zm-133.41 40.6l0 5.8 5.8 0 0 -5.8 -5.8 0zm116.01 -127.6l0 5.8 5.8 0 0 -5.8 -5.8 0zm-46.41 29l0 5.8 5.8 0 0 -5.8 -5.8 0zm17.4 116l0 5.8 5.81 0 0 -5.8 -5.81 0zm63.81 0l0 5.8 5.8 0 0 -5.8 -5.8 0zm-127.61 -110.2l0 5.8 5.8 0 0 -5.8 -5.8 0zm133.41 63.8l0 5.8 5.8 0 0 -5.8 -5.8 0zm-46.4 -23.2l0 5.8 5.8 0 0 -5.8 -5.8 0zm-87.01 63.8l0 5.8 5.8 0 0 -5.8 -5.8 0zm133.41 11.6l0 5.8 5.8 0 0 -5.8 -5.8 0zm-156.61 -104.4l0 5.8 5.8 0 0 -5.8 -5.8 0zm133.41 11.6l0 5.8 5.8 0 0 -5.8 -5.8 0zm-133.41 40.6l0 5.8 5.8 0 0 -5.8 -5.8 0zm133.41 11.6l0 5.8 5.8 0 0 -5.8 -5.8 0zm-133.41 40.6l0 5.8 5.8 0 0 -5.8 -5.8 0zm174.01 5.8l0 5.8 5.8 0 0 -5.8 -5.8 0zm-58 -133.4l0 5.8 5.8 0 0 -5.8 -5.8 0zm-110.21 -23.2l0 5.8 5.8 0 0 -5.8 -5.8 0zm63.8 0l0 5.8 5.8 0 0 -5.8 -5.8 0zm-63.8 52.2l0 5.8 5.8 0 0 -5.8 -5.8 0zm81.2 63.8l0 5.8 5.81 0 0 -5.8 -5.81 0zm63.81 52.2l0 5.8 5.8 0 0 -5.8 -5.8 0zm-110.21 -23.2l0 5.8 5.8 0 0 -5.8 -5.8 0zm-17.4 -139.2l0 5.8 5.8 0 0 -5.8 -5.8 0zm87.01 -11.6l0 5.8 5.8 0 0 -5.8 -5.8 0zm-87.01 63.8l0 5.8 5.8 0 0 -5.8 -5.8 0zm133.41 63.8l0 5.8 5.8 0 0 -5.8 -5.8 0zm-46.4 -23.2l0 5.8 5.8 0 0 -5.8 -5.8 0zm-87.01 63.8l0 5.8 5.8 0 0 -5.8 -5.8 0zm87.01 -11.6l0 5.8 5.8 0 0 -5.8 -5.8 0zm23.2 -69.6l0 5.8 5.8 0 0 -5.8 -5.8 0zm-133.41 40.6l0 5.8 5.8 0 0 -5.8 -5.8 0zm174.01 5.8l0 5.8 5.8 0 0 -5.8 -5.8 0zm-110.21 -23.2l0 5.8 5.8 0 0 -5.8 -5.8 0zm0 52.2l0 5.8 5.8 0 0 -5.8 -5.8 0zm5.8 -133.4l0 5.8 5.8 0 0 -5.8 -5.8 0zm11.6 110.2l0 5.8 5.8 0 0 -5.8 -5.8 0zm5.8 -98.6l0 5.8 5.81 0 0 -5.8 -5.81 0zm63.81 0l0 5.8 5.8 0 0 -5.8 -5.8 0zm-110.21 -23.2l0 5.8 5.8 0 0 -5.8 -5.8 0zm-23.2 63.8l0 5.8 5.8 0 0 -5.8 -5.8 0zm23.2 -11.6l0 5.8 5.8 0 0 -5.8 -5.8 0zm46.4 75.4l0 5.8 5.81 0 0 -5.8 -5.81 0zm63.81 0l0 5.8 5.8 0 0 -5.8 -5.8 0zm-110.21 -23.2l0 5.8 5.8 0 0 -5.8 -5.8 0zm116.01 -127.6l0 5.8 5.8 0 0 -5.8 -5.8 0zm-116.01 179.8l0 5.8 5.8 0 0 -5.8 -5.8 0zm116.01 -127.6l0 5.8 5.8 0 0 -5.8 -5.8 0zm-133.41 40.6l0 5.8 5.8 0 0 -5.8 -5.8 0zm87.01 -11.6l0 5.8 5.8 0 0 -5.8 -5.8 0zm0 52.2l0 5.8 5.8 0 0 -5.8 -5.8 0zm-63.81 -110.2l0 5.8 5.8 0 0 -5.8 -5.8 0zm-46.4 -23.2l0 5.8 5.8 0 0 -5.8 -5.8 0zm46.4 75.4l0 5.8 5.8 0 0 -5.8 -5.8 0zm11.6 110.2l0 5.8 5.8 0 0 -5.8 -5.8 0zm63.81 0l0 5.8 5.8 0 0 -5.8 -5.8 0zm-121.81 -133.4l0 5.8 5.8 0 0 -5.8 -5.8 0zm0 52.2l0 5.8 5.8 0 0 -5.8 -5.8 0zm127.61 -17.4l0 5.8 5.8 0 0 -5.8 -5.8 0zm-46.41 -23.2l0 5.8 5.8 0 0 -5.8 -5.8 0zm-17.4 75.4l0 5.8 5.8 0 0 -5.8 -5.8 0zm63.81 0l0 5.8 5.8 0 0 -5.8 -5.8 0zm23.2 -121.8l0 5.8 5.8 0 0 -5.8 -5.8 0zm-133.41 40.6l0 5.8 5.8 0 0 -5.8 -5.8 0zm133.41 11.6l0 5.8 5.8 0 0 -5.8 -5.8 0zm-110.21 -23.2l0 5.8 5.8 0 0 -5.8 -5.8 0zm-23.2 63.8l0 5.8 5.8 0 0 -5.8 -5.8 0zm23.2 -11.6l0 5.8 5.8 0 0 -5.8 -5.8 0zm46.4 75.4l0 5.8 5.81 0 0 -5.8 -5.81 0zm-46.4 -23.2l0 5.8 5.8 0 0 -5.8 -5.8 0zm-17.4 -139.2l0 5.8 5.8 0 0 -5.8 -5.8 0zm133.41 11.6l0 5.8 5.8 0 0 -5.8 -5.8 0zm-46.4 -23.2l0 5.8 5.8 0 0 -5.8 -5.8 0zm-87.01 116l0 5.8 5.8 0 0 -5.8 -5.8 0zm145.01 11.6l0 5.8 5.8 0 0 -5.8 -5.8 0zm-46.4 29l0 5.8 5.8 0 0 -5.8 -5.8 0zm-121.81 -133.4l0 5.8 5.8 0 0 -5.8 -5.8 0zm174.01 5.8l0 5.8 5.8 0 0 -5.8 -5.8 0zm-162.41 156.6l0 5.8 5.8 0 0 -5.8 -5.8 0zm52.2 -127.6l0 5.8 5.8 0 0 -5.8 -5.8 0zm110.21 75.4l0 5.8 5.8 0 0 -5.8 -5.8 0zm-92.81 -98.6l0 5.8 5.8 0 0 -5.8 -5.8 0zm-87 63.8l0 5.8 5.8 0 0 -5.8 -5.8 0zm69.6 11.6l0 5.8 5.8 0 0 -5.8 -5.8 0zm-69.6 40.6l0 5.8 5.8 0 0 -5.8 -5.8 0zm133.41 11.6l0 5.8 5.8 0 0 -5.8 -5.8 0zm-110.21 -81.2l0 5.8 5.8 0 0 -5.8 -5.8 0zm69.6 11.6l0 5.8 5.81 0 0 -5.8 -5.81 0zm63.81 0l0 5.8 5.8 0 0 -5.8 -5.8 0zm-110.21 -23.2l0 5.8 5.8 0 0 -5.8 -5.8 0zm-23.2 63.8l0 5.8 5.8 0 0 -5.8 -5.8 0zm23.2 -11.6l0 5.8 5.8 0 0 -5.8 -5.8 0zm-23.2 63.8l0 5.8 5.8 0 0 -5.8 -5.8 0zm5.8 -150.8l0 5.8 5.8 0 0 -5.8 -5.8 0zm11.6 110.2l0 5.8 5.8 0 0 -5.8 -5.8 0zm75.41 -121.8l0 5.8 5.8 0 0 -5.8 -5.8 0zm-121.81 150.8l0 5.8 5.8 0 0 -5.8 -5.8 0zm116.01 -75.4l0 5.8 5.8 0 0 -5.8 -5.8 0zm63.8 0l0 5.8 5.8 0 0 -5.8 -5.8 0zm-110.21 -23.2l0 5.8 5.8 0 0 -5.8 -5.8 0zm110.21 75.4l0 5.8 5.8 0 0 -5.8 -5.8 0zm-110.21 -23.2l0 5.8 5.8 0 0 -5.8 -5.8 0zm116.01 -127.6l0 5.8 5.8 0 0 -5.8 -5.8 0zm-116.01 179.8l0 5.8 5.8 0 0 -5.8 -5.8 0zm116.01 -127.6l0 5.8 5.8 0 0 -5.8 -5.8 0zm-110.21 -23.2l0 5.8 5.8 0 0 -5.8 -5.8 0zm63.81 0l0 5.8 5.8 0 0 -5.8 -5.8 0zm-46.41 -23.2l0 5.8 5.8 0 0 -5.8 -5.8 0zm-87 63.8l0 5.8 5.8 0 0 -5.8 -5.8 0zm69.6 11.6l0 5.8 5.8 0 0 -5.8 -5.8 0zm63.81 0l0 5.8 5.8 0 0 -5.8 -5.8 0zm-133.41 40.6l0 5.8 5.8 0 0 -5.8 -5.8 0zm69.6 11.6l0 5.8 5.8 0 0 -5.8 -5.8 0zm17.4 -23.2l0 5.8 5.8 0 0 -5.8 -5.8 0zm0 52.2l0 5.8 5.8 0 0 -5.8 -5.8 0zm-63.8 -162.4l0 5.8 5.8 0 0 -5.8 -5.8 0zm133.41 11.6l0 5.8 5.8 0 0 -5.8 -5.8 0zm-63.81 52.2l0 5.8 5.81 0 0 -5.8 -5.81 0zm63.81 0l0 5.8 5.8 0 0 -5.8 -5.8 0zm-110.21 29l0 5.8 5.8 0 0 -5.8 -5.8 0zm104.41 46.4l0 5.8 5.8 0 0 -5.8 -5.8 0zm-121.81 -133.4l0 5.8 5.8 0 0 -5.8 -5.8 0zm11.6 110.2l0 5.8 5.8 0 0 -5.8 -5.8 0zm0 52.2l0 5.8 5.8 0 0 -5.8 -5.8 0zm127.61 0l0 5.8 5.8 0 0 -5.8 -5.8 0zm-58 -98.6l0 5.8 5.8 0 0 -5.8 -5.8 0zm17.4 -23.2l0 5.8 5.8 0 0 -5.8 -5.8 0zm-17.4 75.4l0 5.8 5.8 0 0 -5.8 -5.8 0zm-92.81 -98.6l0 5.8 5.8 0 0 -5.8 -5.8 0zm110.21 75.4l0 5.8 5.8 0 0 -5.8 -5.8 0zm-17.4 75.4l0 5.8 5.8 0 0 -5.8 -5.8 0zm-92.81 -98.6l0 5.8 5.8 0 0 -5.8 -5.8 0zm110.21 75.4l0 5.8 5.8 0 0 -5.8 -5.8 0zm52.2 -127.6l0 5.8 5.8 0 0 -5.8 -5.8 0zm-162.41 104.4l0 5.8 5.8 0 0 -5.8 -5.8 0zm162.41 -52.2l0 5.8 5.8 0 0 -5.8 -5.8 0zm-110.21 -23.2l0 5.8 5.8 0 0 -5.8 -5.8 0zm63.81 0l0 5.8 5.8 0 0 -5.8 -5.8 0zm-133.41 40.6l0 5.8 5.8 0 0 -5.8 -5.8 0zm69.6 11.6l0 5.8 5.8 0 0 -5.8 -5.8 0zm17.4 -23.2l0 5.8 5.8 0 0 -5.8 -5.8 0zm0 52.2l0 5.8 5.8 0 0 -5.8 -5.8 0zm-46.4 -98.6l0 5.8 5.8 0 0 -5.8 -5.8 0zm110.21 75.4l0 5.8 5.8 0 0 -5.8 -5.8 0zm17.4 -23.2l0 5.8 5.8 0 0 -5.8 -5.8 0zm-17.4 75.4l0 5.8 5.8 0 0 -5.8 -5.8 0zm-92.81 -98.6l0 5.8 5.8 0 0 -5.8 -5.8 0zm46.41 75.4l0 5.8 5.8 0 0 -5.8 -5.8 0zm-110.21 29l0 5.8 5.8 0 0 -5.8 -5.8 0zm116.01 -127.6l0 5.8 5.8 0 0 -5.8 -5.8 0zm17.4 -23.2l0 5.8 5.8 0 0 -5.8 -5.8 0zm-63.81 52.2l0 5.8 5.8 0 0 -5.8 -5.8 0zm46.41 75.4l0 5.8 5.8 0 0 -5.8 -5.8 0zm-92.81 -98.6l0 5.8 5.8 0 0 -5.8 -5.8 0zm110.21 75.4l0 5.8 5.8 0 0 -5.8 -5.8 0zm-110.21 -23.2l0 5.8 5.8 0 0 -5.8 -5.8 0zm46.4 75.4l0 5.8 5.8 0 0 -5.8 -5.8 0zm63.81 0l0 5.8 5.8 0 0 -5.8 -5.8 0zm-110.21 -23.2l0 5.8 5.8 0 0 -5.8 -5.8 0zm69.6 -150.8l0 5.8 5.8 0 0 -5.8 -5.8 0zm-87 63.8l0 5.8 5.8 0 0 -5.8 -5.8 0zm0 52.2l0 5.8 5.8 0 0 -5.8 -5.8 0zm81.2 63.8l0 5.8 5.8 0 0 -5.8 -5.8 0zm17.41 -23.2l0 5.8 5.8 0 0 -5.8 -5.8 0zm69.6 -98.6l0 5.8 5.8 0 0 -5.8 -5.8 0zm-174.01 -23.2l0 5.8 5.8 0 0 -5.8 -5.8 0zm110.21 75.4l0 5.8 5.8 0 0 -5.8 -5.8 0zm63.8 0l0 5.8 5.8 0 0 -5.8 -5.8 0zm-17.4 75.4l0 5.8 5.8 0 0 -5.8 -5.8 0zm-92.81 -98.6l0 5.8 5.8 0 0 -5.8 -5.8 0zm-17.4 75.4l0 5.8 5.8 0 0 -5.8 -5.8 0zm63.81 0l0 5.8 5.8 0 0 -5.8 -5.8 0zm-110.21 -23.2l0 5.8 5.8 0 0 -5.8 -5.8 0zm116.01 -127.6l0 5.8 5.8 0 0 -5.8 -5.8 0zm0 52.2l0 5.8 5.8 0 0 -5.8 -5.8 0zm-46.41 -23.2l0 5.8 5.8 0 0 -5.8 -5.8 0zm63.81 0l0 5.8 5.8 0 0 -5.8 -5.8 0zm-110.21 -23.2l0 5.8 5.8 0 0 -5.8 -5.8 0zm0 104.4l0 5.8 5.8 0 0 -5.8 -5.8 0zm-17.4 -87l0 5.8 5.8 0 0 -5.8 -5.8 0zm87 -11.6l0 5.8 5.8 0 0 -5.8 -5.8 0zm58.01 23.2l0 5.8 5.8 0 0 -5.8 -5.8 0zm0 52.2l0 5.8 5.8 0 0 -5.8 -5.8 0zm-46.4 -23.2l0 5.8 5.8 0 0 -5.8 -5.8 0zm-17.41 75.4l0 5.8 5.8 0 0 -5.8 -5.8 0zm63.81 0l0 5.8 5.8 0 0 -5.8 -5.8 0zm-46.4 -23.2l0 5.8 5.8 0 0 -5.8 -5.8 0zm52.2 -127.6l0 5.8 5.8 0 0 -5.8 -5.8 0zm0 52.2l0 5.8 5.8 0 0 -5.8 -5.8 0zm-110.21 -23.2l0 5.8 5.8 0 0 -5.8 -5.8 0zm63.81 0l0 5.8 5.8 0 0 -5.8 -5.8 0zm46.4 75.4l0 5.8 5.8 0 0 -5.8 -5.8 0zm-156.61 -98.6l0 5.8 5.8 0 0 -5.8 -5.8 0zm174.01 75.4l0 5.8 5.8 0 0 -5.8 -5.8 0zm-127.61 52.2l0 5.8 5.8 0 0 -5.8 -5.8 0zm63.81 0l0 5.8 5.8 0 0 -5.8 -5.8 0zm63.8 0l0 5.8 5.8 0 0 -5.8 -5.8 0zm-174.01 29l0 5.8 5.8 0 0 -5.8 -5.8 0zm116.01 -127.6l0 5.8 5.8 0 0 -5.8 -5.8 0zm63.8 0l0 5.8 5.8 0 0 -5.8 -5.8 0zm-110.21 -23.2l0 5.8 5.8 0 0 -5.8 -5.8 0zm63.81 0l0 5.8 5.8 0 0 -5.8 -5.8 0zm-110.21 81.2l0 5.8 5.8 0 0 -5.8 -5.8 0zm104.41 -5.8l0 5.8 5.8 0 0 -5.8 -5.8 0zm0 52.2l0 5.8 5.8 0 0 -5.8 -5.8 0zm-110.21 -23.2l0 5.8 5.8 0 0 -5.8 -5.8 0zm63.8 0l0 5.8 5.8 0 0 -5.8 -5.8 0zm-63.8 52.2l0 5.8 5.8 0 0 -5.8 -5.8 0zm133.41 -150.8l0 5.8 5.8 0 0 -5.8 -5.8 0zm-63.81 52.2l0 5.8 5.8 0 0 -5.8 -5.8 0z"/>
  <path class="fil0" d="M30.05 19.9l-1.48 9.25c-0.03,0.21 -0.05,0.34 -0.05,0.41 0,0.3 0.14,0.46 0.43,0.46 0.46,0 0.97,-0.23 1.51,-0.68 0.55,-0.44 1.03,-1.11 1.44,-1.98 0.4,-0.88 0.61,-1.91 0.61,-3.08 0,-1.98 -0.6,-3.59 -1.8,-4.81 -1.18,-1.23 -2.75,-1.84 -4.68,-1.84 -2.25,0 -4.1,0.78 -5.56,2.32 -1.46,1.55 -2.19,3.62 -2.19,6.21 0,2.49 0.71,4.47 2.14,5.93 1.42,1.47 3.24,2.2 5.44,2.2 1.09,0 2.12,-0.19 3.1,-0.55 0.98,-0.36 1.91,-0.9 2.78,-1.62l2.46 0c-1.01,1.28 -2.26,2.26 -3.76,2.92 -1.49,0.66 -3.01,0.99 -4.56,0.99 -2.65,0 -4.86,-0.89 -6.64,-2.69 -1.79,-1.79 -2.68,-4.15 -2.68,-7.08 0,-2.9 0.83,-5.36 2.49,-7.37 1.67,-2 3.97,-3 6.93,-3 1.76,0 3.2,0.34 4.32,1.02 1.12,0.68 2.05,1.63 2.8,2.84 0.75,1.22 1.12,2.73 1.12,4.53 0,2.38 -0.66,4.26 -1.99,5.63 -1.32,1.37 -2.65,2.06 -3.99,2.06 -0.99,0 -1.6,-0.45 -1.82,-1.37 -0.53,0.52 -0.99,0.88 -1.37,1.07 -0.38,0.2 -0.85,0.3 -1.38,0.3 -1.16,0 -2.09,-0.45 -2.79,-1.35 -0.7,-0.9 -1.05,-2.1 -1.05,-3.61 0,-1.94 0.49,-3.67 1.47,-5.18 0.97,-1.51 2.16,-2.27 3.56,-2.27 0.55,0 1.06,0.14 1.51,0.42 0.45,0.28 0.84,0.7 1.17,1.26l0.19 -1.34 2.32 0zm-7.78 7.77c0,0.73 0.15,1.35 0.46,1.85 0.31,0.51 0.73,0.76 1.25,0.76 0.5,0 0.94,-0.2 1.33,-0.59 0.38,-0.4 0.74,-1.22 1.06,-2.45 0.33,-1.23 0.49,-2.4 0.49,-3.52 0,-0.7 -0.15,-1.27 -0.44,-1.7 -0.29,-0.43 -0.7,-0.64 -1.2,-0.64 -0.94,0 -1.67,0.66 -2.19,1.99 -0.51,1.34 -0.76,2.77 -0.76,4.3z"/>
  <path id="_1" class="fil0" d="M59.4 19.68l0 15.47 -4.78 0 0.08 -1.29c-0.33,0.52 -0.73,0.92 -1.21,1.18 -0.47,0.26 -1.02,0.39 -1.64,0.39 -0.71,0 -1.29,-0.12 -1.76,-0.37 -0.47,-0.25 -0.81,-0.58 -1.03,-0.99 -0.22,-0.41 -0.36,-0.84 -0.41,-1.29 -0.06,-0.45 -0.08,-1.33 -0.08,-2.66l0 -10.44 4.7 0 0 10.53c0,1.2 0.03,1.91 0.11,2.14 0.07,0.23 0.27,0.34 0.6,0.34 0.35,0 0.56,-0.12 0.62,-0.35 0.07,-0.23 0.1,-0.98 0.1,-2.25l0 -10.41 4.7 0z"/>
  <path id="_2" class="fil0" d="M65.88 19.68l-0.07 1.44c0.34,-0.58 0.76,-1 1.25,-1.29 0.5,-0.29 1.06,-0.43 1.71,-0.43 0.81,0 1.47,0.19 1.98,0.57 0.52,0.38 0.85,0.86 0.99,1.44 0.15,0.58 0.23,1.54 0.23,2.89l0 10.85 -4.7 0 0 -10.71c0,-1.07 -0.04,-1.72 -0.11,-1.95 -0.07,-0.23 -0.26,-0.35 -0.59,-0.35 -0.33,0 -0.55,0.14 -0.63,0.4 -0.09,0.27 -0.13,0.99 -0.13,2.15l0 10.46 -4.7 0 0 -15.47 4.77 0z"/>
  <path id="_3" class="fil0" d="M84.02 25.53l-4.44 0 0 -1.79c0,-0.62 -0.05,-1.04 -0.15,-1.27 -0.11,-0.22 -0.3,-0.33 -0.58,-0.33 -0.28,0 -0.46,0.1 -0.56,0.29 -0.09,0.2 -0.14,0.63 -0.14,1.31l0 7.29c0,0.56 0.07,0.97 0.21,1.25 0.14,0.27 0.35,0.41 0.63,0.41 0.32,0 0.54,-0.14 0.66,-0.43 0.11,-0.29 0.17,-0.83 0.17,-1.63l0 -1.83 4.2 0c-0.01,1.23 -0.05,2.16 -0.14,2.78 -0.08,0.61 -0.34,1.24 -0.78,1.89 -0.44,0.65 -1.01,1.14 -1.72,1.47 -0.71,0.33 -1.58,0.49 -2.63,0.49 -1.33,0 -2.39,-0.22 -3.17,-0.68 -0.77,-0.45 -1.33,-1.09 -1.65,-1.91 -0.32,-0.82 -0.48,-1.99 -0.48,-3.5l0 -4.39c0,-1.32 0.13,-2.31 0.39,-2.98 0.27,-0.67 0.83,-1.26 1.7,-1.79 0.86,-0.52 1.91,-0.78 3.15,-0.78 1.23,0 2.28,0.26 3.16,0.78 0.87,0.52 1.45,1.18 1.74,1.97 0.29,0.8 0.43,1.92 0.43,3.38z"/>
  <path id="_4" class="fil0" d="M90.1 16.27l0 4.25c0.4,-0.37 0.84,-0.66 1.31,-0.84 0.47,-0.19 0.97,-0.28 1.51,-0.28 0.82,0 1.52,0.21 2.11,0.62 0.57,0.43 0.93,0.91 1.06,1.46 0.12,0.54 0.19,1.55 0.19,3l0 10.67 -4.7 0 0 -10.89c0,-0.9 -0.05,-1.48 -0.14,-1.73 -0.09,-0.26 -0.29,-0.39 -0.6,-0.39 -0.29,0 -0.49,0.13 -0.59,0.4 -0.1,0.26 -0.15,0.79 -0.15,1.57l0 11.04 -4.7 0 0 -18.88 4.7 0z"/>
  <polygon id="_5" class="fil0" points="112.24,16.27 112.24,35.15 107.4,35.15 107.4,16.27 "/>
  <path id="_6" class="fil0" d="M124.58 25.11l0 3.79c0,1.39 -0.07,2.41 -0.21,3.07 -0.14,0.64 -0.44,1.25 -0.89,1.81 -0.46,0.57 -1.05,0.98 -1.77,1.25 -0.72,0.27 -1.54,0.4 -2.47,0.4 -1.04,0 -1.93,-0.11 -2.65,-0.34 -0.72,-0.23 -1.28,-0.58 -1.68,-1.04 -0.4,-0.46 -0.69,-1.02 -0.86,-1.68 -0.17,-0.66 -0.25,-1.64 -0.25,-2.95l0 -3.97c0,-1.44 0.15,-2.56 0.46,-3.37 0.31,-0.81 0.87,-1.46 1.68,-1.95 0.81,-0.49 1.84,-0.73 3.1,-0.73 1.05,0 1.96,0.15 2.72,0.47 0.75,0.31 1.34,0.72 1.75,1.23 0.41,0.5 0.7,1.02 0.85,1.56 0.15,0.54 0.22,1.35 0.22,2.45zm-4.7 -1.16c0,-0.8 -0.04,-1.3 -0.13,-1.5 -0.08,-0.21 -0.27,-0.31 -0.55,-0.31 -0.28,0 -0.47,0.1 -0.56,0.31 -0.1,0.2 -0.14,0.7 -0.14,1.5l0 6.98c0,0.73 0.04,1.21 0.14,1.42 0.09,0.23 0.27,0.34 0.55,0.34 0.28,0 0.47,-0.1 0.56,-0.3 0.09,-0.21 0.13,-0.64 0.13,-1.31l0 -7.13z"/>
  <path id="_7" class="fil0" d="M141.34 19.68l-1.86 15.47 -5.12 0c-0.27,-1.89 -0.59,-4.39 -0.98,-7.48 -0.15,1.36 -0.33,2.73 -0.56,4.11l-0.5 3.37 -5.1 0 -1.99 -15.47 4.03 0c0.05,0.41 0.39,3.36 1.04,8.87 0.07,-0.57 0.42,-3.53 1.05,-8.87l3.9 0 0.97 8.87c0.16,-2.59 0.51,-5.55 1.08,-8.87l4.04 0z"/>
  <path id="_8" class="fil0" d="M152.78 27.68l-6.1 0 0 3.35c0,0.7 0.05,1.15 0.15,1.36 0.1,0.2 0.29,0.3 0.58,0.3 0.37,0 0.61,-0.14 0.73,-0.4 0.12,-0.27 0.18,-0.79 0.18,-1.57l0 -2.04 4.46 0 0 1.15c0,0.95 -0.05,1.69 -0.17,2.2 -0.13,0.52 -0.41,1.06 -0.85,1.65 -0.44,0.58 -1.01,1.02 -1.69,1.32 -0.68,0.29 -1.53,0.43 -2.56,0.43 -0.99,0 -1.87,-0.14 -2.63,-0.43 -0.76,-0.29 -1.36,-0.68 -1.78,-1.18 -0.43,-0.5 -0.72,-1.06 -0.88,-1.66 -0.16,-0.6 -0.25,-1.48 -0.25,-2.63l0 -4.51c0,-1.36 0.19,-2.42 0.55,-3.21 0.37,-0.78 0.96,-1.38 1.8,-1.79 0.83,-0.42 1.79,-0.62 2.87,-0.62 1.32,0 2.41,0.25 3.27,0.75 0.86,0.5 1.46,1.16 1.81,1.99 0.34,0.82 0.51,1.99 0.51,3.49l0 2.05zm-4.7 -2.51l0 -1.13c0,-0.8 -0.04,-1.31 -0.13,-1.55 -0.09,-0.23 -0.26,-0.35 -0.54,-0.35 -0.33,0 -0.54,0.1 -0.62,0.3 -0.08,0.2 -0.11,0.73 -0.11,1.6l0 1.13 1.4 0z"/>
  <path id="_9" class="fil0" d="M158.99 19.68l-0.16 2.04c0.68,-1.47 1.68,-2.24 2.98,-2.32l0 5.44c-0.86,0 -1.5,0.11 -1.91,0.35 -0.4,0.23 -0.65,0.55 -0.74,0.97 -0.09,0.42 -0.14,1.37 -0.14,2.88l0 6.11 -4.7 0 0 -15.47 4.67 0z"/>
  <path id="_10" class="fil0" d="M172.47 24.62l-4.15 0 0 -0.84c0,-0.71 -0.04,-1.16 -0.12,-1.35 -0.08,-0.19 -0.29,-0.29 -0.61,-0.29 -0.27,0 -0.47,0.09 -0.6,0.26 -0.13,0.18 -0.2,0.44 -0.2,0.79 0,0.47 0.04,0.82 0.1,1.04 0.07,0.23 0.27,0.47 0.6,0.73 0.32,0.27 1,0.65 2.02,1.16 1.36,0.67 2.26,1.29 2.68,1.89 0.43,0.59 0.64,1.45 0.64,2.57 0,1.26 -0.16,2.21 -0.49,2.85 -0.32,0.64 -0.87,1.14 -1.63,1.49 -0.77,0.34 -1.69,0.51 -2.77,0.51 -1.19,0 -2.22,-0.18 -3.07,-0.55 -0.85,-0.38 -1.43,-0.88 -1.75,-1.52 -0.32,-0.64 -0.48,-1.6 -0.48,-2.89l0 -0.74 4.18 0 0 0.97c0,0.83 0.05,1.37 0.15,1.62 0.11,0.25 0.32,0.37 0.62,0.37 0.34,0 0.57,-0.08 0.7,-0.25 0.13,-0.17 0.2,-0.52 0.2,-1.06 0,-0.74 -0.09,-1.2 -0.26,-1.38 -0.18,-0.19 -1.09,-0.74 -2.73,-1.66 -1.38,-0.78 -2.22,-1.48 -2.52,-2.12 -0.31,-0.63 -0.46,-1.38 -0.46,-2.25 0,-1.24 0.17,-2.15 0.49,-2.74 0.33,-0.59 0.88,-1.04 1.66,-1.36 0.78,-0.32 1.69,-0.47 2.72,-0.47 1.02,0 1.89,0.13 2.61,0.39 0.72,0.26 1.27,0.6 1.65,1.03 0.39,0.42 0.62,0.82 0.7,1.19 0.08,0.36 0.12,0.94 0.12,1.71l0 0.9z"/>
  <path id="_11" class="fil0" d="M174.23 16.27l4.89 0c1.54,0 2.71,0.12 3.5,0.36 0.8,0.24 1.44,0.73 1.93,1.46 0.49,0.74 0.73,1.92 0.73,3.55 0,1.1 -0.17,1.87 -0.52,2.3 -0.34,0.44 -1.03,0.77 -2.04,1 1.13,0.26 1.91,0.69 2.31,1.28 0.41,0.6 0.61,1.51 0.61,2.74l0 1.75c0,1.28 -0.15,2.22 -0.44,2.84 -0.29,0.61 -0.75,1.03 -1.39,1.26 -0.63,0.23 -1.94,0.34 -3.91,0.34l-5.67 0 0 -18.88zm4.92 3.22l0 4.2c0.2,-0.01 0.36,-0.01 0.48,-0.01 0.47,0 0.77,-0.12 0.9,-0.35 0.13,-0.24 0.19,-0.92 0.19,-2.04 0,-0.59 -0.05,-1.01 -0.16,-1.25 -0.1,-0.23 -0.24,-0.38 -0.41,-0.45 -0.17,-0.06 -0.51,-0.09 -1,-0.1zm0 7.14l0 5.3c0.67,-0.03 1.11,-0.14 1.29,-0.33 0.19,-0.2 0.28,-0.68 0.28,-1.44l0 -1.77c0,-0.81 -0.08,-1.3 -0.25,-1.47 -0.16,-0.17 -0.61,-0.27 -1.32,-0.29z"/>
  <path id="_12" class="fil0" d="M197.91 25.11l0 3.79c0,1.39 -0.07,2.41 -0.21,3.07 -0.14,0.64 -0.44,1.25 -0.9,1.81 -0.45,0.57 -1.04,0.98 -1.76,1.25 -0.72,0.27 -1.54,0.4 -2.48,0.4 -1.04,0 -1.92,-0.11 -2.64,-0.34 -0.72,-0.23 -1.29,-0.58 -1.68,-1.04 -0.4,-0.46 -0.69,-1.02 -0.86,-1.68 -0.17,-0.66 -0.26,-1.64 -0.26,-2.95l0 -3.97c0,-1.44 0.16,-2.56 0.47,-3.37 0.31,-0.81 0.87,-1.46 1.68,-1.95 0.8,-0.49 1.84,-0.73 3.1,-0.73 1.05,0 1.96,0.15 2.72,0.47 0.75,0.31 1.34,0.72 1.75,1.23 0.41,0.5 0.69,1.02 0.84,1.56 0.15,0.54 0.23,1.35 0.23,2.45zm-4.7 -1.16c0,-0.8 -0.04,-1.3 -0.13,-1.5 -0.09,-0.21 -0.27,-0.31 -0.55,-0.31 -0.28,0 -0.47,0.1 -0.57,0.31 -0.09,0.2 -0.14,0.7 -0.14,1.5l0 6.98c0,0.73 0.05,1.21 0.14,1.42 0.1,0.23 0.28,0.34 0.56,0.34 0.28,0 0.46,-0.1 0.55,-0.3 0.1,-0.21 0.14,-0.64 0.14,-1.31l0 -7.13z"/>
  <path id="_13" class="fil0" d="M204.41 17.63l0 2.43 1.31 0 0 2.46 -1.31 0 0 8.27c0,1.02 0.05,1.58 0.16,1.7 0.11,0.12 0.55,0.18 1.34,0.18l0 2.48 -1.91 0c-1.07,0 -1.84,-0.05 -2.3,-0.14 -0.46,-0.09 -0.86,-0.29 -1.21,-0.61 -0.35,-0.33 -0.57,-0.69 -0.66,-1.11 -0.08,-0.41 -0.13,-1.39 -0.13,-2.92l0 -7.85 -1 0 0 -2.46 1 0 0 -2.43 4.71 0z"/>
  <path id="_14" class="fil0" d="M35.6 16.27l4.89 0c1.54,0 2.71,0.12 3.51,0.36 0.79,0.24 1.43,0.73 1.92,1.46 0.49,0.74 0.73,1.92 0.73,3.55 0,1.1 -0.17,1.87 -0.51,2.3 -0.35,0.44 -1.03,0.77 -2.05,1 1.14,0.26 1.91,0.69 2.31,1.28 0.41,0.6 0.61,1.51 0.61,2.74l0 1.75c0,1.28 -0.15,2.22 -0.44,2.84 -0.29,0.61 -0.75,1.03 -1.38,1.26 -0.64,0.23 -1.95,0.34 -3.92,0.34l-5.67 0 0 -18.88zm4.92 3.22l0 4.2c0.21,-0.01 0.37,-0.01 0.48,-0.01 0.47,0 0.77,-0.12 0.9,-0.35 0.13,-0.24 0.19,-0.92 0.19,-2.04 0,-0.59 -0.05,-1.01 -0.15,-1.25 -0.11,-0.23 -0.25,-0.38 -0.42,-0.45 -0.17,-0.06 -0.51,-0.09 -1,-0.1zm0 7.14l0 5.3c0.68,-0.03 1.11,-0.14 1.3,-0.33 0.18,-0.2 0.27,-0.68 0.27,-1.44l0 -1.77c0,-0.81 -0.08,-1.3 -0.25,-1.47 -0.16,-0.17 -0.6,-0.27 -1.32,-0.29z"/>
  <polygon id="_15" class="fil0" points="98.04,16.27 106.35,16.27 106.35,20.04 102.96,20.04 102.96,23.64 105.97,23.64 105.97,27.22 102.96,27.22 102.96,35.15 98.04,35.15 "/>
  <rect class="fil1 str0" x="1" y="1" width="222.11" height="250.16" rx="15.92" ry="15.75"/>
 </g>
</svg>
