<svg xmlns="http://www.w3.org/2000/svg" viewBox="0 0 64 64" fill="none">
  <path fill="#F43F5E" d="M32 10c-4.4 0-8 3.6-8 8 0 3.7 2.6 6.8 6 7.7-1.9 1.4-3.2 3.8-3.2 6.5 0 4.4 3.6 8 8 8s8-3.6 8-8c0-2.7-1.3-5.1-3.2-6.5 3.4-.9 6-4 6-7.7 0-4.4-3.6-8-8-8-2.5 0-4.7 1.1-6.4 2.9C36.7 11.1 34.5 10 32 10Z"/>
  <path fill="#16A34A" d="M31.1 40.8c-.3 5.4-1.2 9.8-4.4 13.2-.7.8-.6 2 .2 2.7.8.7 2 .6 2.7-.2 3.8-4.1 4.9-9.4 5.3-15.3.4-5.9 0-12.1 0-18.6 0-1.1-.9-2-2-2s-2 .9-2 2c0 6.4.3 12.4 0 18.2Z"/>
  <path fill="#22C55E" d="M20 41c4.7.4 8.3 2.3 11 5.9.6.9.4 2.1-.4 2.7-.9.6-2.1.4-2.7-.4-2.1-2.8-4.7-4.1-8.2-4.4-1.1-.1-1.9-1-1.8-2.1.1-1.1 1-1.9 2.1-1.7Z"/>
  <path fill="#22C55E" d="M44 41c-4.7.4-8.3 2.3-11 5.9-.6.9-.4 2.1.4 2.7.9.6 2.1.4 2.7-.4 2.1-2.8 4.7-4.1 8.2-4.4 1.1-.1 1.9-1 1.8-2.1-.1-1.1-1-1.9-2.1-1.7Z"/>
</svg>
